<?xml version="1.0" encoding="UTF-8" standalone="no"?>
<svg
   xmlns:osb="http://www.openswatchbook.org/uri/2009/osb"
   xmlns:dc="http://purl.org/dc/elements/1.1/"
   xmlns:cc="http://creativecommons.org/ns#"
   xmlns:rdf="http://www.w3.org/1999/02/22-rdf-syntax-ns#"
   xmlns:svg="http://www.w3.org/2000/svg"
   xmlns="http://www.w3.org/2000/svg"
   xmlns:xlink="http://www.w3.org/1999/xlink"
   xmlns:sodipodi="http://sodipodi.sourceforge.net/DTD/sodipodi-0.dtd"
   xmlns:inkscape="http://www.inkscape.org/namespaces/inkscape"
   version="1.1"
   width="851"
   height="315"
   id="svg4604"
   inkscape:version="0.91+devel+osxmenu r12869"
   sodipodi:docname="yalefie-cover-cyan-green.svg"
   inkscape:export-filename="/Users/will/code/cs183/yalefie-assets/yalefie-cover-complete.png"
   inkscape:export-xdpi="96"
   inkscape:export-ydpi="96">
  <metadata
     id="metadata4617">
    <rdf:RDF>
      <cc:Work
         rdf:about="">
        <dc:format>image/svg+xml</dc:format>
        <dc:type
           rdf:resource="http://purl.org/dc/dcmitype/StillImage" />
        <dc:title></dc:title>
      </cc:Work>
    </rdf:RDF>
  </metadata>
  <defs
     id="defs4615">
    <linearGradient
       id="linearGradient6121"
       osb:paint="solid">
      <stop
         style="stop-color:#6bd966;stop-opacity:0.99215686;"
         offset="0"
         id="stop6123" />
    </linearGradient>
    <linearGradient
       id="linearGradient6113"
       osb:paint="solid">
      <stop
         style="stop-color:#0d4d92;stop-opacity:1;"
         offset="0"
         id="stop6115" />
    </linearGradient>
    <linearGradient
       id="linearGradient6103"
       osb:paint="solid">
      <stop
         style="stop-color:#6bd996;stop-opacity:0;"
         offset="0"
         id="stop6105" />
    </linearGradient>
    <linearGradient
       inkscape:collect="always"
       id="linearGradient4633">
      <stop
         style="stop-color:#000000;stop-opacity:1;"
         offset="0"
         id="stop4635" />
      <stop
         style="stop-color:#000000;stop-opacity:0;"
         offset="1"
         id="stop4637" />
    </linearGradient>
    <linearGradient
       inkscape:collect="always"
       xlink:href="#linearGradient4633"
       id="linearGradient4639"
       x1="23.1869"
       y1="241.731"
       x2="615.774"
       y2="241.731"
       gradientUnits="userSpaceOnUse" />
    <linearGradient
       inkscape:collect="always"
       xlink:href="#linearGradient6121"
       id="linearGradient6125"
       x1="319.22026"
       y1="152.57609"
       x2="388.43978"
       y2="152.57609"
       gradientUnits="userSpaceOnUse" />
  </defs>
  <sodipodi:namedview
     pagecolor="#213684"
     bordercolor="#666666"
     borderopacity="1"
     objecttolerance="10"
     gridtolerance="10"
     guidetolerance="10"
     inkscape:pageopacity="1"
     inkscape:pageshadow="2"
     inkscape:window-width="1928"
     inkscape:window-height="926"
     id="namedview4613"
     showgrid="false"
     inkscape:zoom="1.3979167"
     inkscape:cx="410.13413"
     inkscape:cy="162.43866"
     inkscape:window-x="0"
     inkscape:window-y="23"
     inkscape:window-maximized="0"
     inkscape:current-layer="svg4604" />
  <desc
     iVinci="yes"
     version="4.5"
     gridStep="20"
     showGrid="no"
     snapToGrid="no"
     codePlatform="0"
     id="desc4606" />
  <g
     id="Layer1"
     style="opacity:1;fill:#0b9dd8;fill-opacity:0.94117647"
     transform="translate(114.45604,-85.596125)">
    <g
       id="Shape1"
       style="fill:#0b9dd8;fill-opacity:0.94117647">
      <desc
         shapeID="1"
         type="2"
         basicInfo-basicType="0"
         basicInfo-roundedRectRadius="12"
         basicInfo-polygonSides="6"
         basicInfo-starPoints="5"
         bounding="rect(-320.5,-240.5,641,481)"
         text="#YALEFIE"
         font-familyName="Agent Red"
         font-pixelSize="80"
         font-bold="0"
         font-underline="0"
         font-alignment="1"
         strokeStyle="0"
         markerStart="0"
         markerEnd="0"
         shadowEnabled="0"
         shadowOffsetX="0"
         shadowOffsetY="2"
         shadowBlur="4"
         shadowOpacity="160"
         blurEnabled="0"
         blurRadius="4"
         transform="matrix(1,0,0,1,319,239)"
         pers-center="0,0"
         pers-size="0,0"
         pers-start="0,0"
         pers-end="0,0"
         locked="0"
         mesh=""
         flag=""
         id="desc4610"
         style="fill-opacity:1;fill:url(#linearGradient4639)" />
      <path
         id="shapePath1"
         d="m 91.6669,263.291 -8.56,0.56 0.8,10.96 -19.84,4 0,-9.6 -3.6,0.72 0,7.52 -17.36,2.32 -0.08,-9.04 -7.92,1.04 0,-4.88 -3.92,0.24 0.48,-8.56 -8.48,0.56 0.88,-16.88 8.08,-0.64 0.16,-7.04 -8.24,0.24 0.48,-18 10.08,-0.32 -0.08,-13.84 17.44,-1.84 0.08,8.8 3.68,-0.4 0,-8.96 15.36,-0.96 0.56,8.48 7.44,-0.48 0.56,7.76 2.4,-0.08 0,8.24 8,-0.24 0.08,18.48 -6.88,0.16 0.08,4.56 7.76,-0.56 0.56,17.68 m -10.48,-10.24 -0.4,-12.88 -9.12,0.72 -0.72,-9.6 8.8,-0.16 -0.08,-13.68 -9.68,0.32 -1.12,-15.92 -10.72,0.64 0.08,15.68 -8.56,0.24 -0.08,-14.96 -12.64,1.36 0.16,14 -10.24,0.32 -0.32,13.2 10.64,-0.24 0.08,11.52 -10.88,0.88 -0.64,12.08 11.68,-0.72 0.08,13.2 12.56,-1.68 -0.08,-12.32 8.4,-0.56 0.08,13.36 14.88,-2.96 -0.8,-11.28 8.64,-0.56 m -22.88,-11.12 -8.4,0.72 -0.08,-10.88 8.48,-0.16 0,10.32 m 134.4701,-39.36 -25.36,44 2.72,41.76 -32.32,0.16 -0.16,-8 -7.84,0 -0.64,-40.24 -27.6,-38.32 27.52,-4.96 5.84,8.4 2.16,-0.4 6.32,9.2 6.96,-17.6 34.4,-2 -5.04,8.72 13.04,-0.72 m -12.32,-5.36 -28.4,1.68 -8.96,22.56 -15.12,-21.84 -22.24,4 25.84,35.84 0.56,38.64 27.44,-0.16 -2.64,-39.92 23.52,-40.8 m 105.27,82.48 -27.52,9.84 -3.04,-9.76 -4.96,1.76 -3.68,-11.52 -8.4,-0.72 -4.56,18.96 -23.6,-10.48 0.96,-4 -8.96,-4 18.72,-74.16 29.76,1.04 2.88,7.84 5.12,0.16 27.28,75.04 m -11.12,-9.44 -25.84,-71.28 -26.24,-0.96 -17.76,70.4 19.12,8.48 4.4,-18.16 17.68,1.44 5.84,18.24 22.8,-8.16 m -33.2,-29.6 -9.92,-0.48 3.52,-20.4 6.4,20.88 m 110.714,18.96 -1.6,27.68 -45.2,0.96 0.4,-8.16 -8.4,0.16 4.48,-84 23.36,-0.4 -0.4,8.16 8.4,-0.16 -2.24,47.6 13.2,0.16 -0.48,7.92 8.48,0.08 m -10.56,-5.6 -21.52,-0.32 2.56,-55.36 -18.56,0.32 -4.24,79.12 40.4,-0.8 1.36,-22.96 m 81.276,-51.92 -1.68,25.44 -16.32,0.16 -0.4,6.72 8.48,0.32 -1.2,21.2 -1.68,-0.08 0.24,5.76 7.68,0 0.96,25.52 -47.44,0.64 0.56,-8.08 -8.56,0.08 6,-85.68 45.36,0 -0.56,8 8.56,0 m -10.56,-5.6 -40.56,0 -5.68,80.88 42.4,-0.64 -0.8,-20.72 -20.08,-0.08 0.48,-10.88 13.44,0.4 0.88,-16.4 -13.6,-0.48 0.48,-11.12 21.68,-0.32 1.36,-20.64 m 79.599,28.72 -19.52,1.2 0.4,6.96 7.52,0.24 1.52,24.4 -14.72,0 0.4,28.96 -25.6,0.16 0.16,-8.08 -8.16,0.08 1.76,-82.56 47.12,-2.64 0.4,8.48 7.6,-0.48 1.12,23.28 m -10.56,-10.24 -0.88,-18.48 -42.48,2.32 -1.68,77.92 20.72,-0.16 -0.32,-28.96 14.56,0 -1.2,-19.68 -13.6,-0.48 -0.16,-10.96 25.04,-1.52 m 62.705,4.08 c 0,3.147 -0.934,5.987 -2.8,8.52 -1.867,2.534 -4.294,4.36 -7.28,5.48 l 0,2.16 8.08,-0.16 -0.48,54 -28.48,-0.16 0.4,-8 -8.4,0 2.48,-53.28 6.96,-0.16 c -0.64,-0.853 -1.147,-1.786 -1.52,-2.8 -2.774,-1.226 -5,-3.053 -6.68,-5.48 -1.68,-2.426 -2.52,-5.133 -2.52,-8.12 0,-4.213 1.586,-7.786 4.76,-10.72 3.173,-2.933 6.973,-4.4 11.4,-4.4 3.306,0 6.32,0.867 9.04,2.6 2.72,1.734 4.693,4.04 5.92,6.92 2.72,1.227 4.92,3.054 6.6,5.48 1.68,2.427 2.52,5.134 2.52,8.12 m -10.4,-8 c 0,-3.52 -1.334,-6.52 -4,-9 -2.667,-2.48 -5.894,-3.72 -9.68,-3.72 -3.787,0 -7.027,1.24 -9.72,3.72 -2.694,2.48 -4.04,5.48 -4.04,9 0,3.52 1.346,6.52 4.04,9 2.693,2.48 5.933,3.72 9.72,3.72 3.786,0 7.013,-1.24 9.68,-3.72 2.666,-2.48 4,-5.48 4,-9 m -2.08,18.48 -21.76,0.4 -2.24,48.56 23.6,0.16 0.4,-49.12 m 84.233,-27.44 -1.68,25.44 -16.32,0.16 -0.4,6.72 8.48,0.32 -1.2,21.2 -1.68,-0.08 0.24,5.76 7.68,0 0.96,25.52 -47.44,0.64 0.56,-8.08 -8.56,0.08 6,-85.68 45.36,0 -0.56,8 8.56,0 m -10.56,-5.6 -40.56,0 -5.68,80.88 42.4,-0.64 -0.8,-20.72 -20.08,-0.08 0.48,-10.88 13.44,0.4 0.88,-16.4 -13.6,-0.48 0.48,-11.12 21.68,-0.32 1.36,-20.64 z"
         style="fill:#0b9dd8;fill-opacity:0.94117647;fill-rule:nonzero;stroke:none"
         inkscape:connector-curvature="0" />
    </g>
  </g>
  <path
     style="opacity:1;fill:#000000;fill-opacity:0;stroke:#000000;stroke-width:0.71535021;stroke-linecap:butt;stroke-linejoin:miter;stroke-miterlimit:4;stroke-dasharray:none;stroke-dashoffset:0;stroke-opacity:1"
     d="m 152.03577,176.6747 0,-6.72573 -5.7228,0.33129 -5.72281,0.33128 0.008,-3.13215 c 0.004,-1.72268 0.2074,-4.3393 0.45127,-5.81471 0.38618,-2.33637 0.69539,-2.68256 2.39601,-2.68256 1.07394,0 3.44612,-0.20471 5.27153,-0.45491 l 3.31892,-0.45491 0,-5.98324 0,-5.98325 -5.36513,0 -5.36513,0 0,-6.08047 0,-6.08048 3.12966,0 c 1.72131,0 4.13562,-0.20119 5.36513,-0.4471 l 2.23547,-0.44709 0,-6.69278 c 0,-7.58576 -0.5992,-6.94581 7.30678,-7.80372 l 4.08771,-0.44358 0.20439,7.38062 0.2044,7.38062 4.44719,0.21236 4.4472,0.21236 0.20258,-8.08121 0.20258,-8.08121 4.58464,-0.21593 c 5.373,-0.25305 5.76141,0.10344 5.77698,5.30237 0.006,2.01067 0.21567,5.14926 0.46587,6.97467 l 0.4549,3.31892 4.55255,0 4.55254,0 0,4.20268 c 0,2.31148 0.20119,5.20864 0.44709,6.43815 l 0.4471,2.23547 -4.82862,0 -4.82861,0 0.44709,2.23547 c 0.24591,1.22951 0.4471,3.52694 0.4471,5.10539 l 0,2.86992 4.64977,-0.37324 4.64978,-0.37324 0,6.35578 0,6.35578 -3.9889,0 -3.9889,0 0.23331,5.72448 c 0.12832,3.14847 0.17388,5.72373 0.10124,5.7228 -0.21154,-0.003 -10.43883,2.10305 -12.20772,2.5135 -1.57606,0.36571 -1.60954,0.24178 -1.60954,-5.95907 0,-3.48291 -0.13309,-6.46669 -0.29576,-6.63062 -0.16267,-0.16394 -2.25507,-0.189 -4.64978,-0.0557 l -4.35401,0.24238 0,6.29127 0,6.29128 -4.82861,0.48476 c -2.65574,0.26662 -5.39196,0.64772 -6.08048,0.84689 -1.12916,0.32664 -1.25186,-0.29708 -1.25186,-6.3636 z m 18.06259,-19.82887 2.68256,-0.01 0,-5.79934 c 0,-4.99434 -0.15706,-5.73906 -1.13153,-5.36513 -0.62234,0.23882 -2.55379,0.43421 -4.2921,0.43421 l -3.16057,0 0,5.80624 c 0,5.67218 0.0372,5.79627 1.60954,5.37489 0.88525,-0.23724 2.81669,-0.43573 4.2921,-0.44111 z"
     id="path6101"
     inkscape:connector-curvature="0" />
  <path
     style="opacity:1;fill:#6bd96b;fill-opacity:1;stroke:#000000;stroke-width:0.71535021;stroke-linecap:butt;stroke-linejoin:miter;stroke-miterlimit:4;stroke-dasharray:none;stroke-dashoffset:0;stroke-opacity:1"
     d="m 152.75112,175.65705 0,-6.63017 -5.7228,0.49921 -5.72281,0.49921 0.01,-3.44708 c 0.0172,-6.06239 0.33723,-6.52304 4.89118,-7.03998 6.93128,-0.78681 6.54466,-0.3412 6.54466,-7.54323 l 0,-6.38994 -5.36513,0 -5.36513,0 0,-5.26597 0,-5.26597 5.18629,-0.63567 5.18629,-0.63567 0.35768,-6.79122 0.35767,-6.79122 2.14605,-0.45648 c 1.18033,-0.25107 3.35321,-0.49457 4.82862,-0.54112 l 2.68256,-0.0846 0.011,6.25931 c 0.006,3.44263 0.24746,6.61894 0.53652,7.05848 0.28905,0.43955 2.69843,1.02851 5.35417,1.30881 l 4.82861,0.50963 0,-8.3176 0,-8.3176 4.47094,0.21297 4.47094,0.21297 0.52063,6.77505 c 0.28635,3.72627 0.67863,7.18677 0.87174,7.69001 0.23144,0.60312 1.82165,0.91497 4.66566,0.91497 l 4.31455,0 0,3.48734 c 0,1.91803 0.20119,4.49329 0.44709,5.7228 l 0.4471,2.23547 -4.8328,0 -4.83279,0 0.4434,2.68256 c 0.24387,1.47541 0.44694,4.07629 0.45127,5.77974 l 0.008,3.09718 4.64977,-0.49795 4.64978,-0.49795 0,5.80614 0,5.80613 -3.93443,0 -3.93442,0 0,5.70918 c 0,6.36495 0.70525,5.58239 -6.43815,7.14385 -5.8833,1.28602 -5.72281,1.42334 -5.72281,-4.89658 0,-3.65535 -0.31416,-5.88286 -0.89418,-6.34007 -0.49181,-0.38768 -2.90611,-0.54935 -5.36513,-0.35929 l -4.47094,0.34557 0,6.35217 c 0,6.1087 -0.0617,6.35242 -1.60954,6.3584 -0.88524,0.003 -3.29955,0.20921 -5.36512,0.45731 l -3.75559,0.4511 0,-6.63016 z m 20.74515,-23.92929 c 0,-3.32104 -0.25202,-6.19402 -0.56006,-6.3844 -0.30804,-0.19037 -2.56139,-0.16466 -5.00745,0.0571 l -4.44739,0.40327 0,5.50423 c 0,3.02732 0.21461,5.71883 0.4769,5.98112 0.2623,0.2623 2.51565,0.4769 5.00745,0.4769 l 4.53055,0 0,-6.03826 z"
     id="path6109"
     inkscape:connector-curvature="0" />
  <path
     style="opacity:1;fill:#6bd96b;fill-opacity:1;stroke:#000000;stroke-width:0.71535021;stroke-linecap:butt;stroke-linejoin:miter;stroke-miterlimit:4;stroke-dasharray:none;stroke-dashoffset:0;stroke-opacity:1"
     d="m 246.91691,188.78391 c -0.2502,-1.82541 -0.46092,-10.43643 -0.46826,-19.13562 l -0.0133,-15.8167 -12.50529,-17.28835 c -6.8779,-9.5086 -12.50528,-17.59301 -12.50528,-17.96536 0,-0.37235 1.36811,-0.87186 3.04024,-1.11002 1.67213,-0.23816 6.35634,-1.04694 10.40935,-1.79729 l 7.36912,-1.36426 7.29556,10.61014 c 4.01256,5.83557 7.57951,10.52979 7.92655,10.4316 0.34704,-0.0982 2.56019,-5.03218 4.9181,-10.96441 l 4.2871,-10.78587 8.31589,-0.46406 c 4.57374,-0.25524 10.86557,-0.66478 13.98186,-0.9101 l 5.66597,-0.44603 -1.49118,2.4279 c -0.82015,1.33535 -6.12072,10.47559 -11.77905,20.31166 l -10.28788,17.88375 1.23569,17.88376 c 0.67963,9.83607 1.25764,18.769 1.28447,19.85097 l 0.0488,1.96721 -13.13675,0 -13.13675,0 -0.4549,-3.31892 z"
     id="path6111"
     inkscape:connector-curvature="0" />
  <path
     style="opacity:1;fill:url(#linearGradient6125);fill-opacity:1;stroke:#000000;stroke-width:0.71535021;stroke-linecap:butt;stroke-linejoin:miter;stroke-miterlimit:4;stroke-dasharray:none;stroke-dashoffset:0;stroke-opacity:1"
     d="m 363.51101,183.23513 -2.77215,-8.86475 -5.45438,-0.45784 c -2.99991,-0.25181 -7.10543,-0.63998 -9.12338,-0.86261 l -3.669,-0.40477 -1.95038,8.47697 c -1.07271,4.66233 -2.17462,8.71906 -2.44869,9.01493 -0.27407,0.29588 -4.5381,-1.26584 -9.47564,-3.4705 l -8.97732,-4.00845 8.70771,-34.80074 8.70772,-34.80074 12.82545,0.26492 c 7.054,0.14571 12.91239,0.33995 13.01865,0.43164 0.75631,0.65268 25.60689,70.58807 25.17692,70.8538 -0.76585,0.47333 -20.74684,7.49617 -21.32253,7.49437 -0.25896,-7.2e-4 -1.7183,-3.99061 -3.24298,-8.86623 z m -7.57474,-28.15167 c 0.0506,-1.05706 -6.11437,-20.90966 -6.49543,-20.91675 -0.31964,-0.006 -3.58231,18.50787 -3.55378,20.1657 0.005,0.27545 1.85959,0.61696 4.12188,0.75892 2.2623,0.14197 4.51565,0.31898 5.00745,0.39338 0.49181,0.0744 0.90575,-0.10617 0.91988,-0.40125 z"
     id="path6119"
     inkscape:connector-curvature="0" />
  <path
     style="opacity:1;fill:#6bda66;fill-opacity:0.99215686;stroke:#000000;stroke-width:0.71535021;stroke-linecap:butt;stroke-linejoin:miter;stroke-miterlimit:4;stroke-dasharray:none;stroke-dashoffset:0;stroke-opacity:1"
     d="m 414.58266,191.06103 c 0.0726,-4.05632 4.24334,-77.13369 4.41174,-77.2999 0.12357,-0.12197 4.16848,-0.33037 8.98869,-0.46313 l 8.76401,-0.24137 -0.0559,2.14605 c -0.0307,1.18033 -0.5961,13.51852 -1.2564,27.4182 -0.66029,13.89968 -1.0648,25.40788 -0.89891,25.57377 0.1659,0.16589 4.9588,0.30162 10.65089,0.30162 l 10.34927,0 -0.52026,11.26677 c -0.28613,6.19672 -0.57073,11.31106 -0.63242,11.36521 -0.0617,0.0541 -9.04511,0.22914 -19.96314,0.3889 -13.50131,0.19755 -19.8467,0.0516 -19.83761,-0.45612 z"
     id="path6127"
     inkscape:connector-curvature="0" />
  <path
     style="opacity:1;fill:#6bdb66;fill-opacity:0.99215686;stroke:#000000;stroke-width:0.71535021;stroke-linecap:butt;stroke-linejoin:miter;stroke-miterlimit:4;stroke-dasharray:none;stroke-dashoffset:0;stroke-opacity:1"
     d="m 481.07208,190.24849 c -0.0136,-0.75061 1.18371,-18.82822 2.66077,-40.17248 l 2.68555,-38.80775 19.98066,0 19.98066,0 -0.46187,6.97466 c -0.25402,3.83607 -0.46353,8.34277 -0.46556,10.0149 l -0.004,3.04024 -11.08792,0 -11.08793,0 0,6.08048 0,6.08048 6.43815,0 6.43815,0 -0.01,6.25931 c -0.0153,9.78219 0.28532,9.39092 -7.39925,9.6314 l -6.54032,0.20467 -0.20893,5.54396 -0.20892,5.54396 9.94095,0 9.94095,0 0.50484,9.73333 c 0.27766,5.35333 0.36004,9.87814 0.18305,10.05512 -0.17698,0.17698 -9.5317,0.51543 -20.78828,0.75212 -19.8044,0.41641 -20.46729,0.38618 -20.49128,-0.9344 z"
     id="path6129"
     inkscape:connector-curvature="0" />
  <path
     style="opacity:1;fill:#6bdc66;fill-opacity:0.99215686;stroke:#000000;stroke-width:0.71535021;stroke-linecap:butt;stroke-linejoin:miter;stroke-miterlimit:4;stroke-dasharray:none;stroke-dashoffset:0;stroke-opacity:1"
     d="m 551.19942,185.12817 c -0.002,-6.74212 1.52283,-71.30449 1.68846,-71.48347 0.22264,-0.24057 41.39246,-2.45674 41.57151,-2.23779 0.0985,0.12046 0.37992,4.12125 0.62536,8.89065 l 0.44625,8.67163 -6.60604,0.4583 c -3.63332,0.25206 -9.26177,0.65318 -12.50767,0.89137 l -5.90164,0.43307 0,5.55312 0,5.55313 6.74563,0.50574 6.74564,0.50574 0.38016,4.40794 c 0.20908,2.42437 0.55583,6.74177 0.77053,9.59423 l 0.39038,5.18629 -7.33733,-1.1e-4 -7.33734,-1.1e-4 0.25348,14.30712 0.25348,14.30711 -10.08954,0 -10.08955,0 -0.002,-5.54396 z"
     id="path6131"
     inkscape:connector-curvature="0" />
  <path
     style="opacity:1;fill:#6bdd66;fill-opacity:0.99215686;stroke:#000000;stroke-width:0.71535021;stroke-linecap:butt;stroke-linejoin:miter;stroke-miterlimit:4;stroke-dasharray:none;stroke-dashoffset:0;stroke-opacity:1"
     d="m 622.32826,191.20864 c 0.18406,-0.88524 0.72427,-11.63037 1.20048,-23.87807 l 0.86582,-22.26853 3.64177,-0.43762 c 2.00297,-0.24069 6.78036,-0.44042 10.61643,-0.44384 l 6.97466,-0.006 0,24.3219 0,24.32191 -11.81691,0 -11.8169,0 0.33465,-1.60954 z"
     id="path6133"
     inkscape:connector-curvature="0" />
  <path
     style="opacity:1;fill:#6bde66;fill-opacity:0.99215686;stroke:#000000;stroke-width:0.71535021;stroke-linecap:butt;stroke-linejoin:miter;stroke-miterlimit:4;stroke-dasharray:none;stroke-dashoffset:0;stroke-opacity:1"
     d="m 627.88483,136.21155 c -4.35462,-2.15548 -6.57932,-5.69921 -6.57932,-10.4802 0,-4.5029 1.28697,-7.29688 4.48453,-9.73577 4.08344,-3.1146 10.83143,-3.69054 15.26834,-1.30316 2.5877,1.39238 5.9076,5.72979 6.40175,8.36382 1.95227,10.40653 -9.53393,18.12568 -19.5753,13.15531 z"
     id="path6135"
     inkscape:connector-curvature="0" />
  <path
     style="opacity:1;fill:#6bdd66;fill-opacity:0.99215686;stroke:#000000;stroke-width:0.71535021;stroke-linecap:butt;stroke-linejoin:miter;stroke-miterlimit:4;stroke-dasharray:none;stroke-dashoffset:0;stroke-opacity:1"
     d="m 673.89767,188.45971 c 0.37674,-3.16693 5.35121,-73.83877 5.35121,-76.02417 0,-1.05174 1.98686,-1.16728 20.07297,-1.16728 l 20.07297,0 -0.4299,6.97466 c -0.23645,3.83607 -0.5975,8.34277 -0.80235,10.0149 l -0.37244,3.04024 -10.68642,0 -10.68642,0 -0.006,2.32489 c -0.003,1.27869 -0.20921,4.0149 -0.45731,6.08048 l -0.4511,3.75559 6.89547,0 6.89547,0 -0.005,3.04023 c -0.003,1.67214 -0.2103,5.21312 -0.46112,7.86886 l -0.45604,4.82861 -6.69238,0 -6.69238,0 0,5.7228 0,5.7228 9.93204,0 9.93205,0 0.31861,9.83607 c 0.17524,5.40984 0.24629,9.93643 0.15789,10.0591 -0.0884,0.12267 -9.53059,0.41471 -20.98264,0.64898 l -20.82192,0.42595 0.37505,-3.15271 z"
     id="path6137"
     inkscape:connector-curvature="0" />
</svg>
